<?xml version="1.0" encoding="utf-8"?>
<!-- Generator: Adobe Illustrator 17.0.0, SVG Export Plug-In . SVG Version: 6.00 Build 0)  -->
<!DOCTYPE svg PUBLIC "-//W3C//DTD SVG 1.1//EN" "http://www.w3.org/Graphics/SVG/1.1/DTD/svg11.dtd">
<svg version="1.1" id="Layer_1" xmlns="http://www.w3.org/2000/svg" xmlns:xlink="http://www.w3.org/1999/xlink" x="0px" y="0px"
	 width="52px" height="52px" viewBox="0 0 52 52" enable-background="new 0 0 52 52" xml:space="preserve">
<rect x="20.664" y="18.438" fill="#B3B3B3" width="8.408" height="7.577"/>
<rect x="23.336" y="18.438" fill="#B3B3B3" width="4.733" height="4.932"/>
<rect x="23.336" y="18.134" fill="#B3B3B3" width="5.552" height="9.262"/>
<path fill="none" d="M-14.643,23.996c8.913,0.101,17.826,0.113,26.739,0.023"/>
<rect x="2.469" y="16.801" fill="#0071BC" width="18.205" height="11.977"/>
<rect x="23.941" y="13.98" transform="matrix(0.3563 0.9344 -0.9344 0.3563 32.8643 -10.9787)" width="0.919" height="8.764"/>
<rect x="20.435" y="26.937" transform="matrix(0.9467 0.3221 -0.3221 0.9467 10.141 -6.5031)" width="8.577" height="0.919"/>
<rect x="22.532" y="25.128" transform="matrix(0.0328 0.9995 -0.9995 0.0328 51.9638 -2.6287)" width="9.616" height="0.814"/>
<path d="M31.702,33.507l-0.782-0.482c4.051-6.583,4.632-15.675,1.293-20.269l0.743-0.54C36.494,17.084,35.931,26.635,31.702,33.507z
	"/>
<path d="M36.315,39.855l-0.775-0.493c6.335-9.962,6.791-24.745,1.017-32.954l0.751-0.529c2.903,4.127,4.396,9.934,4.203,16.349
	C41.319,28.627,39.474,34.887,36.315,39.855z"/>
<path d="M39.175,46.159l-0.666-0.633c9.214-9.684,11.396-28.867,4.864-42.763l0.831-0.391c3.238,6.889,4.502,15.228,3.559,23.48
	C46.818,34.119,43.768,41.331,39.175,46.159z"/>
</svg>
