<?xml version="1.0" encoding="utf-8"?>
<!-- Generator: Adobe Illustrator 17.0.0, SVG Export Plug-In . SVG Version: 6.00 Build 0)  -->
<!DOCTYPE svg PUBLIC "-//W3C//DTD SVG 1.1//EN" "http://www.w3.org/Graphics/SVG/1.1/DTD/svg11.dtd">
<svg version="1.1" id="Layer_1" xmlns="http://www.w3.org/2000/svg" xmlns:xlink="http://www.w3.org/1999/xlink" x="0px" y="0px"
	 width="52px" height="52px" viewBox="0 0 52 52" enable-background="new 0 0 52 52" xml:space="preserve">
<path d="M30.604,44.495c0,2.853-1.252,5.165-2.797,5.165h-5.559c-1.544,0-2.797-2.313-2.797-5.165l0,0
	c0-2.853,1.252-5.165,2.797-5.165h5.559C29.352,39.329,30.604,41.642,30.604,44.495L30.604,44.495z"/>
<path fill="#B3B3B3" d="M33.068,40.018c0,1.239-0.707,2.244-1.58,2.244H18.567c-0.872,0-1.58-1.005-1.58-2.244l0,0
	c0-1.239,0.707-2.244,1.58-2.244h12.922C32.361,37.774,33.068,38.779,33.068,40.018L33.068,40.018z"/>
<ellipse fill="#0071BC" cx="25.27" cy="25.899" rx="14.303" ry="14.119"/>
<rect x="20.906" y="27.049" width="8.728" height="1.144"/>
<rect x="18.099" y="31.128" transform="matrix(0.3921 0.9199 -0.9199 0.3921 42.2577 -1.3082)" width="8.038" height="0.381"/>
<rect x="28.352" y="27.427" transform="matrix(0.9502 0.3115 -0.3115 0.9502 11.1773 -7.3336)" width="0.381" height="7.782"/>
<rect x="8.987" y="13.911" transform="matrix(0.6249 0.7807 -0.7807 0.6249 15.2882 -3.4258)" width="4.444" height="0.572"/>
<rect x="42.479" y="24.461" transform="matrix(0.2643 0.9644 -0.9644 0.2643 57.0059 -21.7582)" width="0.572" height="4.051"/>
<rect x="41.613" y="18.688" transform="matrix(0.5124 0.8588 -0.8588 0.5124 38.3699 -25.795)" width="0.572" height="4.404"/>
<rect x="38.345" y="13.119" transform="matrix(0.7331 0.6801 -0.6801 0.7331 20.6132 -22.2284)" width="0.572" height="4.066"/>
<rect x="34.53" y="7.58" transform="matrix(0.9026 0.4305 -0.4305 0.9026 7.6696 -14.0191)" width="0.572" height="4.72"/>
<rect x="28.257" y="4.746" transform="matrix(0.9657 0.2595 -0.2595 0.9657 2.9358 -7.1486)" width="0.572" height="5.598"/>
<rect x="8.128" y="25.58" transform="matrix(0.1751 0.9846 -0.9846 0.1751 34.1348 14.5006)" width="0.572" height="4.083"/>
<rect x="6.32" y="20.338" transform="matrix(0.8445 0.5355 -0.5355 0.8445 12.3527 -1.2992)" width="4.188" height="0.572"/>
<rect x="19.498" y="6.676" transform="matrix(0.098 0.9952 -0.9952 0.098 26.879 -15.7324)" width="5.242" height="0.572"/>
<rect x="13.196" y="9.431" transform="matrix(0.5443 0.8389 -0.8389 0.5443 15.3439 -8.8139)" width="5.178" height="0.572"/>
</svg>
