<?xml version="1.0" encoding="utf-8"?>
<!-- Generator: Adobe Illustrator 17.0.0, SVG Export Plug-In . SVG Version: 6.00 Build 0)  -->
<!DOCTYPE svg PUBLIC "-//W3C//DTD SVG 1.1//EN" "http://www.w3.org/Graphics/SVG/1.1/DTD/svg11.dtd">
<svg version="1.1" id="Layer_1" xmlns="http://www.w3.org/2000/svg" xmlns:xlink="http://www.w3.org/1999/xlink" x="0px" y="0px"
	 width="52px" height="52px" viewBox="0 0 52 52" enable-background="new 0 0 52 52" xml:space="preserve">
<rect x="4.95" y="2.487" fill="#0071BC" width="42.746" height="47.025"/>
<rect x="7.402" y="7.974" fill="#B3B3B3" width="37.841" height="11.756"/>
<rect x="10.892" y="11.762" fill="#0071BC" width="3.168" height="3.135"/>
<rect x="16.119" y="11.762" fill="#0071BC" width="3.168" height="3.135"/>
<rect x="21.325" y="11.762" fill="#0071BC" width="3.168" height="3.135"/>
<g>
	<ellipse fill="#0071BC" cx="32.81" cy="13.264" rx="2.855" ry="2.547"/>
	<path d="M32.81,16.131c-1.742,0-3.159-1.286-3.159-2.866s1.417-2.866,3.159-2.866c1.742,0,3.159,1.286,3.159,2.866
		S34.551,16.131,32.81,16.131z M32.81,11.036c-1.406,0-2.551,0.999-2.551,2.228s1.144,2.228,2.551,2.228
		c1.406,0,2.551-0.999,2.551-2.228S34.216,11.036,32.81,11.036z"/>
</g>
<g>
	<ellipse fill="#0071BC" cx="40.091" cy="13.264" rx="2.855" ry="2.547"/>
	<path d="M40.091,16.131c-1.742,0-3.159-1.286-3.159-2.866s1.417-2.866,3.159-2.866c1.742,0,3.159,1.286,3.159,2.866
		S41.833,16.131,40.091,16.131z M40.091,11.036c-1.406,0-2.551,0.999-2.551,2.228s1.144,2.228,2.551,2.228
		c1.406,0,2.551-0.999,2.551-2.228S41.498,11.036,40.091,11.036z"/>
</g>
<ellipse fill="#B3B3B3" cx="26.362" cy="35.209" rx="11.588" ry="11.168"/>
<g>
	<ellipse fill="#F2F2F2" cx="26.362" cy="35.343" rx="6.918" ry="7.253"/>
	<path d="M26.362,43.129c-4.094,0-7.425-3.493-7.425-7.786c0-4.293,3.331-7.786,7.425-7.786s7.425,3.493,7.425,7.786
		C33.786,39.636,30.456,43.129,26.362,43.129z M26.362,28.622c-3.535,0-6.411,3.015-6.411,6.721s2.876,6.721,6.411,6.721
		c3.535,0,6.411-3.015,6.411-6.721S29.897,28.622,26.362,28.622z"/>
</g>
<polygon points="23.537,36.113 23.152,35.619 28.613,30.916 28.999,31.41 "/>
<polygon points="24.69,38.202 24.304,37.708 29.766,33.005 30.152,33.499 "/>
</svg>
