<?xml version="1.0" encoding="utf-8"?>
<!-- Generator: Adobe Illustrator 17.0.0, SVG Export Plug-In . SVG Version: 6.00 Build 0)  -->
<!DOCTYPE svg PUBLIC "-//W3C//DTD SVG 1.1//EN" "http://www.w3.org/Graphics/SVG/1.1/DTD/svg11.dtd">
<svg version="1.1" id="Layer_1" xmlns="http://www.w3.org/2000/svg" xmlns:xlink="http://www.w3.org/1999/xlink" x="0px" y="0px"
	 width="52px" height="52px" viewBox="0 0 52 52" enable-background="new 0 0 52 52" xml:space="preserve">
<ellipse fill="#0071BC" cx="24.446" cy="44.496" rx="13.019" ry="7.504"/>
<path fill="#B3B3B3" d="M30.438,33.147c0.031,4.33-2.747,7.853-6.204,7.869l0,0c-3.458,0.016-6.286-3.481-6.318-7.811L17.715,5.307
	c-0.031-4.33,12.491-4.388,12.522-0.058L30.438,33.147z"/>
<rect x="17.839" y="12.103" fill="#0071BC" width="12.552" height="28.915"/>
<path opacity="0.6" fill="#FDFDFD" enable-background="new    " d="M24.115,36.444c0,0.809-0.995,1.465-2.223,1.465l0,0
	c-1.227,0-2.223-0.656-2.223-1.465V9.542c0-0.809,0.995-1.465,2.223-1.465l0,0c1.227,0,2.223,0.656,2.223,1.465V36.444z"/>
<rect x="31.977" y="12.582" width="5.588" height="0.658"/>
<rect x="34.442" y="11.747" transform="matrix(0.0264 0.9997 -0.9997 0.0264 48.3906 -20.6001)" width="0.658" height="5.59"/>
<rect x="31.977" y="15.982" width="5.588" height="0.658"/>
</svg>
