<?xml version="1.0" encoding="utf-8"?>
<!-- Generator: Adobe Illustrator 17.0.0, SVG Export Plug-In . SVG Version: 6.00 Build 0)  -->
<!DOCTYPE svg PUBLIC "-//W3C//DTD SVG 1.1//EN" "http://www.w3.org/Graphics/SVG/1.1/DTD/svg11.dtd">
<svg version="1.1" id="Layer_1" xmlns="http://www.w3.org/2000/svg" xmlns:xlink="http://www.w3.org/1999/xlink" x="0px" y="0px"
	 width="52px" height="52px" viewBox="0 0 52 52" enable-background="new 0 0 52 52" xml:space="preserve">
<rect x="35.111" y="9.669" width="5.744" height="10.887"/>
<path fill="#0071BC" d="M40.826,18.757c-0.322-0.167-0.513-0.387-0.603-0.624c-4.217-2.914-7.672-6.717-11.377-10.154
	C27.562,6.906,26.287,5.825,25,4.755c-0.048,0.022-0.094,0.047-0.142,0.07c-0.457,1.546-1.607,2.99-2.73,4.244
	c-1.652,1.843-3.494,3.564-5.433,5.205c-3.35,2.836-6.912,5.512-10.613,8.037h38.615c-0.744-0.913-1.498-1.829-2.344-2.677
	C41.861,19.326,41.354,19.031,40.826,18.757z"/>
<rect x="10.785" y="20.555" fill="#0071BC" width="30.069" height="26.69"/>
<path fill="none" d="M43.665,22.325c11.777,0.073,23.556,0.082,35.333,0.016"/>
<path fill="#FFFFFF" d="M34.494,28.143c0,3.18-2.997,5.757-6.695,5.757h-3.33c-3.698,0-6.695-2.577-6.695-5.757l0,0
	c0-3.18,2.997-5.757,6.695-5.757h3.33C31.496,22.386,34.494,24.964,34.494,28.143L34.494,28.143z"/>
<path d="M32.067,28.143c0,2.384-1.907,4.317-4.259,4.317h-3.65c-2.352,0-4.259-1.933-4.259-4.317l0,0
	c0-2.384,1.907-4.317,4.259-4.317h3.65C30.16,23.826,32.067,25.759,32.067,28.143L32.067,28.143z"/>
<rect x="16.545" y="30.388" fill="#B3B3B3" width="19.176" height="12.387"/>
<ellipse cx="25.959" cy="35.071" rx="3.204" ry="2.107"/>
<rect x="25.073" y="36.739" width="2.041" height="3.687"/>
</svg>
