<?xml version="1.0" encoding="utf-8"?>
<!-- Generator: Adobe Illustrator 17.0.0, SVG Export Plug-In . SVG Version: 6.00 Build 0)  -->
<!DOCTYPE svg PUBLIC "-//W3C//DTD SVG 1.1//EN" "http://www.w3.org/Graphics/SVG/1.1/DTD/svg11.dtd">
<svg version="1.1" id="Layer_1" xmlns="http://www.w3.org/2000/svg" xmlns:xlink="http://www.w3.org/1999/xlink" x="0px" y="0px"
	 width="52px" height="52px" viewBox="0 0 52 52" enable-background="new 0 0 52 52" xml:space="preserve">
<rect x="5.387" y="18.909" fill="#B3B3B3" width="39.367" height="29.79"/>
<path d="M33.246,44.418c0,0.414-0.944,0.749-2.108,0.749l0,0c-1.164,0-2.108-0.335-2.108-0.749v-2.319
	c0-0.414,0.944-0.749,2.108-0.749l0,0c1.164,0,2.108,0.335,2.108,0.749V44.418z"/>
<path d="M20.026,44.441c0,0.494-1.031,0.894-2.303,0.894l0,0c-1.272,0-2.303-0.4-2.303-0.894v-2.384
	c0-0.494,1.031-0.894,2.303-0.894l0,0c1.272,0,2.303,0.4,2.303,0.894V44.441z"/>
<polygon points="1.241,22.86 0.107,21.536 24.379,0.744 25.48,0.921 50.211,21.452 49.098,22.793 24.834,2.65 "/>
<polygon points="3.641,49.095 3.641,18.909 4.416,18.909 4.416,48.302 45.86,47.332 45.634,18.804 46.408,18.798 46.641,48.088 "/>
<rect x="16.236" y="21.718" width="17.075" height="0.775"/>
<rect x="14.012" y="21.753" transform="matrix(0.8894 0.4571 -0.4571 0.8894 13.3705 -3.7321)" width="0.775" height="8.034"/>
<rect x="30.776" y="25.383" transform="matrix(0.4582 0.8888 -0.8888 0.4582 41.7586 -16.9659)" width="8.039" height="0.774"/>
<path fill="#0071BC" d="M33.845,41.311H14.818c-3.354,0-6.072-6.066-6.072-6.066c0-3.35,2.719-6.066,6.072-6.066h19.027
	c3.354,0,6.072,2.716,6.072,6.066C39.917,35.245,37.198,41.311,33.845,41.311z"/>
<path d="M15.904,39.201c-1.107,0-2.008-0.923-2.008-2.058s0.901-2.058,2.008-2.058s2.008,0.923,2.008,2.058
	S17.011,39.201,15.904,39.201z M15.904,35.859c-0.68,0-1.233,0.576-1.233,1.284c0,0.708,0.553,1.284,1.233,1.284
	c0.68,0,1.233-0.576,1.233-1.284C17.137,36.435,16.584,35.859,15.904,35.859z"/>
<path d="M30.352,39.201c-1.107,0-2.008-0.923-2.008-2.058s0.901-2.058,2.008-2.058s2.008,0.923,2.008,2.058
	S31.459,39.201,30.352,39.201z M30.352,35.859c-0.68,0-1.233,0.576-1.233,1.284c0,0.708,0.553,1.284,1.233,1.284
	c0.68,0,1.233-0.576,1.233-1.284C31.585,36.435,31.032,35.859,30.352,35.859z"/>
</svg>
